# xmcd
#
# Track frame offsets:
# 150
# 14662
# 28650
# 45305
# 59252
# 75780
# 92337
# 109800
# 125690
# 141430
# 157452
# 178100
# 193892
# 210817
# 232062
#
# Disc length: 3324 seconds
#
#
# Revision: 5
# Processed by: cddbd v1.5.2PL0 Copyright (c) Steve Scherf et al.
# Submitted via: FreeRIP 2.951 
#
DISCID=cc0cfa0f
DTITLE=Various Artist - Country Heat 5
DYEAR=1995
DGENRE=Country
TTITLE0=Alan Jackson - Summertime Blues
TTITLE1=Charlie Major - The Other Side
TTITLE2=Brooks and Dunn - Rock My World (Little Country Girl)
TTITLE3=Lari White - What A Woman Wants
TTITLE4=Blackhawk - Every Once In A While
TTITLE5=Diamond Rio - Love A Little Stronger
TTITLE6=Martina McBride - That's Me
TTITLE7=Michelle Wright - The Wall
TTITLE8=Prairie Oyster - Such A Lonely One
TTITLE9=Alabama - T.L.C  A.S.A.P
TTITLE10=The Tractors - Tryin' To Get To New Orleans
TTITLE11=Pam Tillis - Let That Pony Run
TTITLE12=Lee Roy Parnell - I'm Holding My Own
TTITLE13=Club Mix - Rock My World (Little Country Girl)
TTITLE14=Lorrie Morgan - My Night To Howl
EXTD=
EXTT0=
EXTT1=
EXTT2=
EXTT3=
EXTT4=
EXTT5=
EXTT6=
EXTT7=
EXTT8=
EXTT9=
EXTT10=
EXTT11=
EXTT12=
EXTT13=
EXTT14=
PLAYORDER=
